<svg xmlns="http://www.w3.org/2000/svg" xmlns:xlink="http://www.w3.org/1999/xlink" width="200" zoomAndPan="magnify" viewBox="0 0 150 30.000001" height="40" preserveAspectRatio="xMidYMid meet" version="1.0"><defs><g/><clipPath id="71f18fb710"><path d="M 2.417969 0 L 147.578125 0 L 147.578125 29.03125 L 2.417969 29.03125 Z M 2.417969 0 " clip-rule="nonzero"/></clipPath><clipPath id="1c19bb0746"><path d="M 0.417969 4 L 23 4 L 23 25 L 0.417969 25 Z M 0.417969 4 " clip-rule="nonzero"/></clipPath><clipPath id="efb1dccd83"><rect x="0" width="146" y="0" height="30"/></clipPath></defs><g clip-path="url(#71f18fb710)"><g transform="matrix(1, 0, 0, 1, 2, 0.000000000000005692)"><g clip-path="url(#efb1dccd83)"><g clip-path="url(#1c19bb0746)"><g fill="#0f79e8" fill-opacity="1"><g transform="translate(0.419352, 24.529914)"><g><path d="M 11.203125 0.390625 C 9.066406 0.390625 7.195312 -0.0390625 5.59375 -0.90625 C 4 -1.78125 2.753906 -2.988281 1.859375 -4.53125 C 0.972656 -6.082031 0.53125 -7.878906 0.53125 -9.921875 C 0.53125 -11.960938 0.976562 -13.757812 1.875 -15.3125 C 2.78125 -16.863281 4.035156 -18.070312 5.640625 -18.9375 C 7.242188 -19.8125 9.085938 -20.25 11.171875 -20.25 C 14.253906 -20.25 16.75 -19.441406 18.65625 -17.828125 C 20.570312 -16.222656 21.726562 -13.957031 22.125 -11.03125 L 14.4375 -11.03125 C 14.226562 -11.675781 13.863281 -12.171875 13.34375 -12.515625 C 12.820312 -12.867188 12.234375 -13.046875 11.578125 -13.046875 C 10.703125 -13.046875 9.988281 -12.757812 9.4375 -12.1875 C 8.894531 -11.625 8.625 -10.867188 8.625 -9.921875 C 8.625 -8.992188 8.890625 -8.242188 9.421875 -7.671875 C 9.960938 -7.097656 10.671875 -6.8125 11.546875 -6.8125 C 12.242188 -6.8125 12.851562 -6.992188 13.375 -7.359375 C 13.894531 -7.722656 14.257812 -8.226562 14.46875 -8.875 L 22.15625 -8.875 C 21.976562 -6.988281 21.394531 -5.347656 20.40625 -3.953125 C 19.425781 -2.566406 18.144531 -1.492188 16.5625 -0.734375 C 14.988281 0.015625 13.203125 0.390625 11.203125 0.390625 Z M 11.203125 0.390625 "/></g></g></g></g><g fill="#0f79e8" fill-opacity="1"><g transform="translate(23.078909, 24.529914)"><g><path d="M 1.28125 0 L 1.28125 -20.984375 L 8.8125 -20.984375 L 8.8125 -14.515625 C 9.363281 -14.878906 9.960938 -15.15625 10.609375 -15.34375 C 11.253906 -15.53125 11.953125 -15.625 12.703125 -15.625 C 14.609375 -15.625 16.113281 -15.050781 17.21875 -13.90625 C 18.332031 -12.757812 18.890625 -11.222656 18.890625 -9.296875 L 18.890625 0 L 11.34375 0 L 11.34375 -8.078125 C 11.34375 -9.160156 10.925781 -9.703125 10.09375 -9.703125 C 9.238281 -9.703125 8.8125 -9.148438 8.8125 -8.046875 L 8.8125 0 Z M 1.28125 0 "/></g></g></g><g fill="#0f79e8" fill-opacity="1"><g transform="translate(43.044261, 24.529914)"><g><path d="M 9.4375 0.390625 C 7.664062 0.390625 6.109375 0.0546875 4.765625 -0.609375 C 3.421875 -1.273438 2.367188 -2.207031 1.609375 -3.40625 C 0.859375 -4.613281 0.484375 -6.007812 0.484375 -7.59375 C 0.484375 -9.1875 0.863281 -10.585938 1.625 -11.796875 C 2.394531 -13.003906 3.460938 -13.941406 4.828125 -14.609375 C 6.203125 -15.285156 7.785156 -15.625 9.578125 -15.625 C 11.546875 -15.625 13.21875 -15.234375 14.59375 -14.453125 C 15.976562 -13.679688 17.019531 -12.59375 17.71875 -11.1875 C 18.425781 -9.78125 18.722656 -8.117188 18.609375 -6.203125 L 7.625 -6.203125 C 7.757812 -5.597656 8.015625 -5.160156 8.390625 -4.890625 C 8.773438 -4.617188 9.226562 -4.484375 9.75 -4.484375 C 10.550781 -4.484375 11.128906 -4.707031 11.484375 -5.15625 L 18.40625 -5.15625 C 17.832031 -3.382812 16.757812 -2.015625 15.1875 -1.046875 C 13.625 -0.0859375 11.707031 0.390625 9.4375 0.390625 Z M 7.65625 -9.125 L 11.65625 -9.125 C 11.425781 -10.207031 10.773438 -10.75 9.703125 -10.75 C 9.191406 -10.75 8.753906 -10.617188 8.390625 -10.359375 C 8.035156 -10.109375 7.789062 -9.695312 7.65625 -9.125 Z M 7.65625 -9.125 "/></g></g></g><g fill="#0f79e8" fill-opacity="1"><g transform="translate(62.158822, 24.529914)"><g><path d="M 1.28125 0 L 1.28125 -15.234375 L 6.640625 -15.234375 L 7.3125 -13.53125 C 8.601562 -14.925781 10.28125 -15.625 12.34375 -15.625 C 13.375 -15.625 14.300781 -15.441406 15.125 -15.078125 C 15.945312 -14.722656 16.625 -14.1875 17.15625 -13.46875 C 18.4375 -14.90625 20.148438 -15.625 22.296875 -15.625 C 23.535156 -15.625 24.617188 -15.363281 25.546875 -14.84375 C 26.472656 -14.320312 27.195312 -13.585938 27.71875 -12.640625 C 28.238281 -11.703125 28.5 -10.585938 28.5 -9.296875 L 28.5 0 L 20.953125 0 L 20.953125 -8.109375 C 20.953125 -9.171875 20.535156 -9.703125 19.703125 -9.703125 C 18.878906 -9.703125 18.46875 -9.171875 18.46875 -8.109375 L 18.46875 0 L 11.3125 0 L 11.3125 -8.109375 C 11.3125 -9.171875 10.894531 -9.703125 10.0625 -9.703125 C 9.226562 -9.703125 8.8125 -9.171875 8.8125 -8.109375 L 8.8125 0 Z M 1.28125 0 "/></g></g></g><g fill="#0f79e8" fill-opacity="1"><g transform="translate(91.738161, 24.529914)"><g><path d="M 0.03125 0 L 7.03125 -19.859375 L 15.828125 -19.859375 L 22.796875 0 L 14.46875 0 L 13.78125 -2.234375 L 8.96875 -2.234375 L 8.28125 0 Z M 10.015625 -7.03125 L 12.765625 -7.03125 L 11.515625 -11.796875 L 11.265625 -11.796875 Z M 10.015625 -7.03125 "/></g></g></g><g fill="#0f79e8" fill-opacity="1"><g transform="translate(114.596235, 24.529914)"><g><path d="M 1.390625 0 L 1.390625 -19.859375 L 12.140625 -19.859375 C 13.898438 -19.859375 15.40625 -19.550781 16.65625 -18.9375 C 17.914062 -18.332031 18.882812 -17.476562 19.5625 -16.375 C 20.25 -15.269531 20.59375 -13.941406 20.59375 -12.390625 C 20.59375 -11.160156 20.375 -10.0625 19.9375 -9.09375 C 19.5 -8.132812 18.863281 -7.328125 18.03125 -6.671875 L 21.015625 0 L 12.390625 0 L 10.515625 -4.9375 L 9.359375 -4.9375 L 9.359375 0 Z M 9.25 -10.4375 L 10.609375 -10.4375 C 11.210938 -10.4375 11.679688 -10.585938 12.015625 -10.890625 C 12.359375 -11.191406 12.53125 -11.632812 12.53125 -12.21875 C 12.53125 -12.820312 12.359375 -13.265625 12.015625 -13.546875 C 11.679688 -13.835938 11.210938 -13.984375 10.609375 -13.984375 L 9.25 -13.984375 Z M 9.25 -10.4375 "/></g></g></g><g fill="#0f79e8" fill-opacity="1"><g transform="translate(136.00793, 24.529914)"><g><path d="M 4.34375 0.390625 C 3.207031 0.390625 2.285156 0.0625 1.578125 -0.59375 C 0.878906 -1.257812 0.53125 -2.117188 0.53125 -3.171875 C 0.53125 -4.253906 0.878906 -5.117188 1.578125 -5.765625 C 2.285156 -6.421875 3.207031 -6.75 4.34375 -6.75 C 5.476562 -6.75 6.390625 -6.421875 7.078125 -5.765625 C 7.765625 -5.117188 8.109375 -4.253906 8.109375 -3.171875 C 8.109375 -2.117188 7.765625 -1.257812 7.078125 -0.59375 C 6.390625 0.0625 5.476562 0.390625 4.34375 0.390625 Z M 4.34375 0.390625 "/></g></g></g></g></g></g></svg>